<?xml version="1.0" standalone="no"?>
<!DOCTYPE svg PUBLIC "-//W3C//DTD SVG 20010904//EN"
 "http://www.w3.org/TR/2001/REC-SVG-20010904/DTD/svg10.dtd">
<svg version="1.0" xmlns="http://www.w3.org/2000/svg"
 width="2294.000000pt" height="234.000000pt" viewBox="0 0 2294.000000 234.000000"
 preserveAspectRatio="xMidYMid meet">

<g transform="translate(0.000000,234.000000) scale(0.100000,-0.100000)"
fill="#000000" stroke="none">
<path d="M442 2118 c-14 -14 -17 -215 -3 -237 5 -8 16 -11 25 -8 14 6 16 23
14 128 -3 121 -10 143 -36 117z"/>
<path d="M685 2118 c-3 -8 -4 -66 -3 -129 l3 -114 35 -3 c77 -5 85 -4 108 24
20 23 23 35 19 73 -7 60 -36 85 -89 77 l-37 -6 -3 42 c-3 41 -23 63 -33 36z
m109 -124 c21 -20 20 -47 -2 -74 -16 -19 -22 -21 -40 -11 -12 6 -23 19 -23 29
-4 62 30 92 65 56z"/>
<path d="M2263 2074 c-34 -34 -44 -60 -18 -50 8 3 22 9 30 12 13 5 15 -7 15
-75 0 -74 2 -81 20 -81 19 0 20 7 20 115 0 103 -2 115 -17 114 -10 -1 -33 -17
-50 -35z"/>
<path d="M6947 2104 c-4 -4 -7 -56 -7 -116 l0 -108 25 0 26 0 -3 112 c-2 92
-6 113 -18 116 -9 1 -19 0 -23 -4z"/>
<path d="M7220 1995 c0 -108 1 -115 20 -115 11 0 20 5 20 11 0 8 4 8 14 0 28
-23 70 -9 88 29 35 71 -12 145 -77 120 -24 -9 -25 -8 -25 30 0 33 -3 40 -20
40 -19 0 -20 -7 -20 -115z m98 13 c7 -7 12 -29 12 -49 0 -29 -5 -39 -20 -44
-29 -9 -50 12 -50 49 0 32 15 56 35 56 6 0 16 -5 23 -12z"/>
<path d="M4890 1980 c0 -110 2 -121 18 -118 15 3 17 17 17 118 0 101 -2 115
-17 118 -16 3 -18 -8 -18 -118z"/>
<path d="M5144 2087 c-2 -7 -3 -60 -2 -118 l3 -104 58 -3 c51 -2 61 1 84 24
22 22 25 32 20 67 -8 56 -38 81 -89 73 l-38 -6 0 40 c0 29 -4 40 -15 40 -9 0
-18 -6 -21 -13z m114 -109 c7 -7 12 -21 12 -33 0 -47 -62 -63 -81 -21 -22 47
33 90 69 54z"/>
<path d="M5720 1980 c0 -113 1 -120 20 -120 19 0 20 7 20 120 0 113 -1 120
-20 120 -19 0 -20 -7 -20 -120z"/>
<path d="M273 2026 c-23 -20 -28 -32 -28 -70 0 -69 50 -107 108 -82 12 6 17 4
17 -7 0 -27 -27 -40 -67 -32 -48 9 -47 9 -51 -9 -2 -9 10 -18 32 -26 43 -14
100 1 116 30 13 25 13 207 0 215 -6 4 -16 2 -23 -4 -8 -6 -18 -6 -27 -1 -24
16 -47 11 -77 -14z m88 -40 c23 -50 -10 -98 -52 -76 -22 12 -27 68 -7 88 20
20 48 14 59 -12z"/>
<path d="M537 2039 c-31 -19 -48 -71 -36 -113 22 -78 136 -81 157 -4 10 36 0
84 -21 105 -18 19 -78 26 -100 12z m71 -41 c25 -25 5 -98 -28 -98 -18 0 -40
32 -40 59 0 30 16 51 40 51 9 0 21 -5 28 -12z"/>
<path d="M904 2035 c-58 -40 -51 -135 12 -161 57 -24 114 14 114 77 0 51 -8
67 -41 84 -35 19 -59 19 -85 0z m77 -49 c23 -50 -10 -98 -52 -76 -22 12 -27
68 -7 88 20 20 48 14 59 -12z"/>
<path d="M1157 2030 c-76 -60 -10 -194 78 -160 36 14 34 44 -2 37 -42 -8 -63
8 -63 47 0 43 20 60 60 51 25 -6 30 -4 30 13 0 37 -62 44 -103 12z"/>
<path d="M1313 2040 c-65 -26 -59 -146 9 -169 73 -26 136 48 104 122 -21 52
-60 68 -113 47z m65 -42 c25 -25 5 -98 -28 -98 -18 0 -40 32 -40 59 0 30 16
51 40 51 9 0 21 -5 28 -12z"/>
<path d="M1457 2043 c-4 -3 -7 -42 -7 -85 0 -62 3 -80 15 -85 24 -9 30 3 35
70 5 58 7 62 30 62 24 0 25 -3 28 -67 3 -60 5 -68 22 -68 17 0 20 7 20 54 0
69 7 86 35 86 28 0 35 -17 35 -86 0 -47 2 -54 20 -54 18 0 20 7 20 74 0 66 -3
77 -22 90 -27 19 -59 21 -76 4 -9 -9 -18 -8 -37 2 -20 11 -33 11 -56 3 -17 -7
-31 -7 -35 -2 -6 11 -18 12 -27 2z"/>
<path d="M2075 2038 c-11 -6 -23 -16 -27 -22 -9 -14 -10 -78 -2 -101 9 -24 49
-36 79 -25 21 8 25 7 25 -10 0 -30 -28 -40 -68 -23 -38 16 -52 10 -36 -15 21
-32 115 -32 136 0 4 7 8 54 8 105 l0 92 -27 -1 c-16 0 -37 2 -48 6 -11 3 -29
1 -40 -6z m63 -30 c18 -18 15 -75 -5 -87 -28 -15 -53 5 -53 42 0 33 15 57 35
57 6 0 16 -5 23 -12z"/>
<path d="M6525 2040 c-37 -15 -49 -40 -46 -97 3 -59 91 -84 136 -38 44 43 29
112 -29 135 -31 12 -34 12 -61 0z m69 -52 c14 -23 -4 -72 -27 -76 -10 -2 -24
2 -32 8 -15 13 -21 71 -8 84 12 12 55 2 67 -16z"/>
<path d="M6776 2026 c-18 -17 -26 -36 -26 -61 0 -25 8 -44 26 -61 24 -25 35
-26 77 -9 13 5 17 2 17 -13 0 -31 -26 -41 -69 -26 -23 8 -37 9 -40 2 -7 -20
27 -39 69 -40 66 -1 80 22 80 133 l0 89 -32 -1 c-18 -1 -43 2 -55 6 -16 5 -28
0 -47 -19z m79 -22 c21 -22 15 -63 -11 -81 -19 -12 -24 -12 -38 2 -20 21 -21
59 0 79 20 20 29 20 49 0z"/>
<path d="M7064 2039 c-47 -24 -57 -96 -19 -134 43 -44 112 -29 135 29 26 71
-49 139 -116 105z m79 -58 c6 -25 -14 -65 -35 -69 -22 -4 -48 25 -48 53 0 51
70 65 83 16z"/>
<path d="M7445 2040 c-37 -15 -49 -40 -46 -97 3 -59 91 -84 136 -38 44 43 29
112 -29 135 -31 12 -34 12 -61 0z m69 -52 c14 -23 -4 -72 -27 -76 -10 -2 -24
2 -32 8 -15 13 -21 71 -8 84 12 12 55 2 67 -16z"/>
<path d="M4723 2008 c-42 -47 -37 -102 13 -134 21 -14 31 -16 55 -7 38 15 41
-9 4 -33 -21 -14 -31 -15 -51 -5 -35 15 -44 14 -44 -8 0 -23 19 -31 74 -31 68
0 80 21 84 141 4 95 3 99 -17 99 -12 0 -21 -5 -21 -12 0 -9 -3 -9 -12 0 -19
19 -63 14 -85 -10z m85 -30 c7 -7 12 -21 12 -33 0 -47 -62 -63 -81 -21 -22 47
33 90 69 54z"/>
<path d="M4982 2010 c-29 -27 -37 -64 -22 -101 31 -74 141 -64 155 15 16 84
-73 141 -133 86z m86 -32 c30 -30 3 -83 -39 -76 -32 5 -45 31 -31 62 13 28 49
35 70 14z"/>
<path d="M5372 2014 c-33 -23 -45 -60 -31 -101 19 -59 90 -73 136 -27 22 22
25 32 20 67 -9 69 -71 99 -125 61z m76 -36 c7 -7 12 -21 12 -33 0 -47 -62 -63
-81 -21 -22 47 33 90 69 54z"/>
<path d="M5530 1910 c0 -100 3 -120 15 -120 11 0 15 11 15 39 l0 39 43 -5 c39
-5 46 -2 65 22 57 73 -11 176 -89 135 -13 -7 -19 -7 -19 0 0 5 -7 10 -15 10
-12 0 -15 -20 -15 -120z m108 68 c30 -30 3 -83 -39 -76 -45 6 -42 88 4 88 13
0 28 -5 35 -12z"/>
<path d="M5810 2010 c-27 -27 -35 -65 -20 -101 17 -39 34 -47 103 -47 l57 1 0
83 c0 77 -2 84 -20 84 -11 0 -20 -5 -20 -12 0 -9 -3 -9 -12 0 -18 18 -66 14
-88 -8z m91 -41 c16 -30 -3 -69 -34 -69 -29 0 -47 17 -47 45 0 45 60 63 81 24z"/>
<path d="M5970 2022 c0 -6 14 -40 30 -77 17 -37 30 -75 30 -85 0 -21 -23 -42
-41 -38 -7 2 -15 -5 -17 -14 -5 -25 49 -24 71 0 15 16 87 193 87 213 0 5 -9 9
-19 9 -15 0 -24 -14 -39 -57 l-19 -58 -20 55 c-15 40 -26 56 -42 58 -11 2 -21
-1 -21 -6z"/>
<path d="M21570 1925 l0 -85 55 0 c30 0 55 5 55 10 0 6 -20 10 -45 10 -43 0
-45 1 -45 30 0 29 2 30 45 30 25 0 45 5 45 10 0 6 -21 10 -46 10 -44 0 -45 1
-42 28 3 24 8 28 48 33 l45 6 -57 1 -58 2 0 -85z"/>
<path d="M21720 1925 c0 -50 4 -85 10 -85 6 0 10 29 10 67 l0 68 48 -67 c26
-37 53 -68 60 -68 9 0 12 24 12 85 0 50 -4 85 -10 85 -6 0 -10 -27 -10 -60 0
-33 -3 -60 -7 -60 -5 0 -27 27 -50 60 -24 33 -47 60 -53 60 -6 0 -10 -35 -10
-85z"/>
<path d="M21905 2001 c30 -6 30 -6 33 -84 4 -101 22 -100 22 2 0 79 0 80 28
84 15 2 -4 4 -43 4 -44 1 -59 -2 -40 -6z"/>
<path d="M22050 1925 c0 -50 4 -85 10 -85 6 0 10 16 10 35 0 46 23 46 52 0 13
-19 29 -35 36 -35 9 0 7 9 -7 29 -23 31 -27 51 -11 51 5 0 14 9 20 21 9 16 8
26 -5 45 -12 19 -24 24 -60 24 l-45 0 0 -85z m67 69 c48 -13 34 -64 -18 -64
-26 0 -29 3 -29 35 0 36 6 40 47 29z"/>
<path d="M22241 1988 c-5 -13 -20 -51 -34 -85 -19 -47 -22 -63 -12 -63 8 0 17
9 20 20 5 16 15 20 50 20 35 0 45 -4 50 -20 6 -19 25 -28 25 -12 0 4 -14 42
-31 85 -32 79 -52 96 -68 55z m44 -44 c8 -20 15 -38 15 -40 0 -2 -16 -4 -35
-4 -19 0 -35 2 -35 4 0 9 31 76 35 76 3 0 12 -16 20 -36z"/>
<path d="M22370 1925 c0 -50 4 -85 10 -85 6 0 10 16 10 35 0 28 4 35 19 35 11
0 28 -15 40 -35 11 -19 25 -35 31 -35 15 0 13 8 -10 40 l-21 29 21 11 c23 12
27 59 8 78 -7 7 -34 12 -60 12 l-48 0 0 -85z m84 62 c31 -22 16 -52 -27 -55
-35 -3 -37 -2 -37 26 0 16 3 32 7 35 10 11 38 8 57 -6z"/>
<path d="M22608 1975 c-4 -4 1 -20 12 -35 25 -35 25 -39 -1 -66 -11 -12 -16
-24 -11 -28 5 -3 23 10 41 28 l31 32 -32 38 c-18 21 -36 34 -40 31z"/>
<path d="M1057 1896 c-8 -19 15 -37 32 -26 17 10 7 40 -13 40 -7 0 -16 -6 -19
-14z"/>
<path d="M0 760 l0 -740 11470 0 11470 0 0 740 0 740 -11470 0 -11470 0 0
-740z m11875 105 l0 -310 -54 -3 c-37 -2 -57 1 -62 10 -5 7 -9 106 -9 221 l0
207 -25 -16 c-40 -26 -55 -13 -55 50 l0 54 88 51 c48 28 94 50 102 48 13 -2
15 -45 15 -312z m-426 147 c29 -21 29 -21 34 -1 5 18 12 20 64 17 l58 -3 0
-225 c0 -249 -9 -304 -56 -370 -47 -65 -97 -85 -209 -85 -84 0 -102 3 -153 29
-32 15 -61 34 -63 41 -6 14 29 90 45 99 5 3 32 -6 60 -20 60 -31 139 -36 188
-11 32 17 40 30 53 83 l7 31 -41 -23 c-71 -41 -164 -29 -233 31 -133 114 -99
341 62 417 54 25 143 20 184 -10z m8344 -86 c18 -7 40 -23 51 -34 23 -26 32
-101 16 -131 -10 -20 -6 -28 41 -77 38 -41 49 -58 40 -67 -8 -8 -25 3 -66 43
-46 46 -56 51 -70 40 -22 -19 -87 -16 -123 6 -34 20 -62 68 -62 106 0 38 33
90 70 110 41 22 60 22 103 4z m-19153 -46 c0 -19 -7 -20 -200 -20 -193 0 -200
1 -200 20 0 19 7 20 200 20 193 0 200 -1 200 -20z m19560 -13 c20 -10 25 -21
27 -57 1 -25 5 -57 8 -72 11 -44 -22 -68 -95 -68 l-60 0 0 105 0 105 48 0 c26
0 58 -6 72 -13z m110 -61 c0 -81 16 -110 48 -89 13 8 18 28 20 87 3 73 4 76
27 76 25 0 25 -1 25 -85 0 -104 -14 -125 -85 -125 -69 0 -85 24 -85 127 0 82
0 83 25 83 24 0 25 -2 25 -74z m271 64 c15 -8 17 -15 10 -28 -7 -14 -19 -17
-45 -14 -48 6 -46 -12 4 -38 44 -22 59 -55 41 -89 -13 -24 -44 -34 -92 -29
-29 2 -34 7 -37 31 -3 25 -2 26 23 17 14 -5 33 -10 41 -10 25 0 15 29 -16 45
-51 26 -64 71 -30 105 22 22 70 26 101 10z m178 1 c7 -5 11 -17 7 -28 -5 -15
-13 -18 -42 -15 -43 5 -54 -7 -54 -59 0 -45 20 -64 60 -56 20 5 32 2 38 -8 5
-10 18 15 41 81 33 93 34 95 63 92 28 -3 32 -9 64 -98 19 -52 34 -98 34 -102
0 -5 -11 -8 -25 -8 -18 0 -28 7 -35 25 -13 35 -67 36 -76 1 -5 -23 -10 -24
-88 -25 -95 -1 -120 14 -132 74 -14 75 28 135 93 135 21 0 44 -4 52 -9z m331
-4 c36 -18 49 -61 25 -87 -20 -22 -21 -20 23 -87 14 -22 13 -23 -16 -23 -24 0
-34 7 -51 35 -11 19 -25 35 -31 35 -5 0 -10 -16 -10 -35 0 -31 -3 -35 -25 -35
l-25 0 0 105 0 105 43 0 c23 0 53 -6 67 -13z m-20211 -39 c30 -100 31 -100 55
-28 21 60 25 65 54 68 l32 3 0 -105 0 -106 -25 0 c-23 0 -25 3 -26 53 l-1 52
-15 -52 c-14 -47 -19 -53 -43 -53 -24 0 -29 6 -43 53 l-15 52 -1 -52 c-1 -50
-3 -53 -26 -53 l-25 0 0 105 0 105 33 0 c31 0 35 -4 46 -42z m301 17 c0 -22
-4 -25 -35 -25 -46 0 -49 -27 -2 -32 24 -2 32 -8 32 -23 0 -15 -8 -21 -32 -23
-25 -2 -33 -8 -33 -23 0 -15 7 -19 35 -19 28 0 35 -4 35 -20 0 -18 -7 -20 -60
-20 l-60 0 0 105 0 105 60 0 c57 0 60 -1 60 -25z m132 -45 l38 -65 0 68 c0 65
1 68 23 65 21 -3 22 -8 25 -105 l3 -103 -35 0 c-32 0 -37 5 -70 63 l-35 62 -1
-62 c0 -60 -1 -63 -25 -63 l-25 0 0 106 0 105 32 -3 c28 -3 37 -12 70 -68z
m178 -15 c5 -74 7 -80 27 -83 30 -4 43 30 43 109 0 57 1 60 23 57 20 -3 22 -9
25 -79 2 -64 0 -79 -18 -102 -18 -23 -29 -27 -69 -27 -67 0 -84 21 -89 111 -5
84 1 101 30 97 21 -3 23 -9 28 -83z m-850 -25 c0 -19 -7 -20 -200 -20 -193 0
-200 1 -200 20 0 19 7 20 200 20 193 0 200 -1 200 -20z m0 -120 c0 -19 -7 -20
-200 -20 -193 0 -200 1 -200 20 0 19 7 20 200 20 193 0 200 -1 200 -20z"/>
<path d="M11313 906 c-36 -16 -60 -50 -63 -86 -5 -62 1 -83 34 -116 89 -89
225 1 188 124 -22 74 -92 108 -159 78z"/>
<path d="M19705 888 c-32 -17 -45 -39 -45 -79 0 -29 7 -43 31 -63 48 -41 106
-30 134 25 40 76 -44 159 -120 117z"/>
<path d="M20130 814 c0 -10 7 -14 22 -12 32 5 35 28 4 28 -17 0 -26 -5 -26
-16z"/>
<path d="M20137 753 c-4 -3 -7 -15 -7 -25 0 -23 38 -25 47 -2 8 21 -24 43 -40
27z"/>
<path d="M20862 790 c-7 -19 -6 -26 5 -28 21 -5 25 2 14 29 l-9 24 -10 -25z"/>
<path d="M21030 810 c0 -13 7 -20 20 -20 13 0 20 7 20 20 0 13 -7 20 -20 20
-13 0 -20 -7 -20 -20z"/>
</g>
</svg>
